<?xml version="1.0" encoding="utf-8"?>
<!-- Generator: Adobe Illustrator 28.1.0, SVG Export Plug-In . SVG Version: 6.00 Build 0)  -->
<svg version="1.1" id="Layer_1" xmlns="http://www.w3.org/2000/svg" xmlns:xlink="http://www.w3.org/1999/xlink" x="0px" y="0px"
	 viewBox="0 0 200 50" style="enable-background:new 0 0 200 50;" xml:space="preserve">
<style type="text/css">
	.st0{fill:#FFFFFF;}
</style>
<g>
	<path class="st0" d="M6.63,48.44C5.05,48.44,4,47.41,4,45.05c0-2.36,1.05-3.38,2.63-3.38c1.19,0,1.85,0.43,2.15,1.27h0.95
		c-0.3-1.41-1.49-2.15-3.11-2.15C4.5,40.79,3,42.14,3,45.05c0,2.92,1.5,4.27,3.62,4.27c1.63,0,2.84-0.74,3.13-2.16H8.81
		C8.51,48.01,7.84,48.44,6.63,48.44z"/>
	<path class="st0" d="M18.77,46.32l1.63-4.16l1.63,4.16H18.77z M23.18,49.23h1.06l-3.42-8.35h-0.85l-3.41,8.35h1.05l0.86-2.16h3.86
		L23.18,49.23z"/>
	<path class="st0" d="M34.65,45.38h-2.07v-3.62h2.07c1.26,0,1.82,0.63,1.82,1.82C36.47,44.75,35.91,45.38,34.65,45.38z M34.63,40.88
		H31.6v8.35h0.97v-2.98h2.06c1.95,0,2.86-1.01,2.86-2.67C37.49,41.9,36.59,40.88,34.63,40.88z"/>
	<rect x="43.95" y="40.88" class="st0" width="0.97" height="8.35"/>
	<polygon class="st0" points="57,40.88 51.27,40.88 51.27,41.75 53.64,41.75 53.64,49.23 54.62,49.23 54.62,41.75 57,41.75 	"/>
	<path class="st0" d="M64.75,46.32l1.63-4.16l1.63,4.16H64.75z M69.16,49.23h1.06l-3.42-8.35h-0.85l-3.41,8.35h1.05l0.86-2.16h3.86
		L69.16,49.23z"/>
	<polygon class="st0" points="78.44,48.35 78.44,40.88 77.48,40.88 77.48,49.23 82.34,49.23 82.34,48.35 	"/>
	<path class="st0" d="M100.7,45.38h-2.07v-3.62h2.07c1.26,0,1.82,0.63,1.82,1.82C102.52,44.75,101.96,45.38,100.7,45.38z
		 M100.69,40.88h-3.03v8.35h0.97v-2.98h2.06c1.96,0,2.86-1.01,2.86-2.67C103.55,41.9,102.64,40.88,100.69,40.88z"/>
	<path class="st0" d="M111.64,46.32l1.63-4.16l1.63,4.16H111.64z M116.05,49.23h1.06l-3.42-8.35h-0.85l-3.41,8.35h1.05l0.86-2.16
		h3.86L116.05,49.23z"/>
	<path class="st0" d="M127.98,45.01h-2.46v-3.25h2.28c1.26,0,1.82,0.46,1.82,1.59C129.62,44.5,129.01,45.01,127.98,45.01z
		 M130.65,47.83v-0.69c0-0.98-0.39-1.52-1.34-1.79c0.83-0.36,1.32-1.02,1.32-2.03c0-1.56-0.85-2.44-2.82-2.44h-3.25v8.35h0.97v-3.42
		h2.66c0.79,0,1.44,0.25,1.44,1.36v0.67c0,0.84,0.07,1.17,0.24,1.4h1.02C130.72,49,130.65,48.67,130.65,47.83z"/>
	<polygon class="st0" points="143.48,40.88 137.75,40.88 137.75,41.75 140.12,41.75 140.12,49.23 141.1,49.23 141.1,41.75 
		143.48,41.75 	"/>
	<polygon class="st0" points="157.22,40.88 156.24,40.88 156.24,47.68 151.88,40.88 150.86,40.88 150.86,49.23 151.83,49.23 
		151.83,42.44 156.18,49.23 157.22,49.23 	"/>
	<polygon class="st0" points="165.82,48.35 165.82,45.35 169.36,45.35 169.36,44.52 165.82,44.52 165.82,41.77 170.07,41.77 
		170.07,40.88 164.85,40.88 164.85,49.23 170.19,49.23 170.19,48.35 	"/>
	<path class="st0" d="M180.81,45.01h-2.45v-3.25h2.28c1.26,0,1.82,0.46,1.82,1.59C182.46,44.5,181.85,45.01,180.81,45.01z
		 M183.48,47.83v-0.69c0-0.98-0.39-1.52-1.34-1.79c0.83-0.36,1.32-1.02,1.32-2.03c0-1.56-0.85-2.44-2.82-2.44h-3.25v8.35h0.97v-3.42
		h2.66c0.79,0,1.44,0.25,1.44,1.36v0.67c0,0.84,0.07,1.17,0.24,1.4h1.02C183.56,49,183.48,48.67,183.48,47.83z"/>
	<path class="st0" d="M194.49,44.61l-1.11-0.24c-1-0.2-1.39-0.7-1.39-1.39c0-0.72,0.48-1.35,1.84-1.35c1.31,0,1.79,0.52,1.91,1.29
		h0.99c-0.17-1.32-1.11-2.13-2.9-2.13c-1.87,0-2.84,0.92-2.84,2.18c0,1.24,0.82,1.92,2.22,2.22l1.2,0.25c0.9,0.19,1.6,0.6,1.6,1.57
		c0,0.91-0.63,1.47-2.11,1.47c-1.48,0-1.98-0.7-2.12-1.6h-1c0.15,1.46,1.13,2.44,3.12,2.44c1.92,0,3.11-0.83,3.11-2.31
		C197,45.58,196.04,44.95,194.49,44.61z"/>
	<path class="st0" d="M15.28,22.76l3.89-11.25l3.89,11.25H15.28z M26.86,33.87h8.53L22.36,1.05h-6.38L3,33.87h8.48l1.83-5.39h11.72
		L26.86,33.87z"/>
	<polygon class="st0" points="65.54,1.05 57.71,1.05 57.71,20.04 45.99,1.05 38.58,1.05 38.58,33.87 46.46,33.87 46.46,14.84 
		57.81,33.87 65.54,33.87 	"/>
	<path class="st0" d="M84.76,27.31c-4.83,0-6.94-3.37-6.94-9.84c0-6.52,2.11-9.85,6.94-9.85c3.33,0,4.78,0.84,6.14,4.03h7.59
		c-0.84-7.5-7.13-10.97-13.88-10.97c-9.05,0-14.96,5.72-14.96,16.79c0,11.06,5.91,16.78,14.96,16.78c6.8,0,13.13-3.47,13.92-11.06
		h-7.59C89.64,26.46,88.14,27.31,84.76,27.31z"/>
	<path class="st0" d="M115.94,27.31c-4.88,0-7.03-3.37-7.03-9.84c0-6.52,2.16-9.85,7.03-9.85c4.88,0,7.03,3.33,7.03,9.85
		C122.97,23.93,120.82,27.31,115.94,27.31z M115.94,0.68c-9.24,0-15.19,5.72-15.19,16.79c0,11.06,5.95,16.78,15.19,16.78
		s15.14-5.72,15.14-16.78C131.08,6.4,125.18,0.68,115.94,0.68z"/>
	<path class="st0" d="M149.18,15.82h-6.33V8.04h6.61c2.91,0,3.89,0.94,3.89,3.66C153.35,14.84,152.93,15.82,149.18,15.82z
		 M162.07,28.38v-2.39c0-3.28-1.17-5.48-4.74-7.26c2.2-1.41,4.41-3.24,4.41-7.27c0-5.91-3.05-10.41-12.1-10.41h-14.67v32.82h7.88
		V22.2h7.27c2.72,0,3.56,1.83,3.56,4.03v2.16c0,3.52,0.14,3.99,0.94,5.49h8.39C162.21,32.37,162.07,31.9,162.07,28.38z"/>
	<path class="st0" d="M176.89,22.76l3.89-11.25l3.89,11.25H176.89z M188.47,33.87H197L183.97,1.05h-6.38L164.6,33.87h8.49l1.83-5.39
		h11.72L188.47,33.87z"/>
</g>
</svg>
